<mxfile host="app.diagrams.net" modified="2021-06-23T02:07:24.508Z" agent="5.0 (Windows NT 10.0; Win64; x64) AppleWebKit/537.36 (KHTML, like Gecko) Chrome/91.0.4472.77 Safari/537.36" etag="fNTo5u83DU1MSjmIoAd5" version="14.8.0" type="github">
  <diagram id="0EBJrcc88xZn_uUqVCnv" name="jvm内存模型">
    <mxGraphModel dx="984" dy="626" grid="1" gridSize="10" guides="1" tooltips="1" connect="1" arrows="1" fold="1" page="1" pageScale="1" pageWidth="192000" pageHeight="108000" background="none" math="0" shadow="1">
      <root>
        <mxCell id="0" />
        <mxCell id="1" parent="0" />
        <mxCell id="DQElCaOPBhp9bba2K63A-4" value="" style="rounded=0;whiteSpace=wrap;html=1;fillColor=#ffe6cc;strokeColor=#d79b00;" vertex="1" parent="1">
          <mxGeometry x="120" y="240" width="650" height="320" as="geometry" />
        </mxCell>
        <mxCell id="DQElCaOPBhp9bba2K63A-5" value="堆" style="rounded=0;whiteSpace=wrap;html=1;fillColor=#d5e8d4;strokeColor=#82b366;" vertex="1" parent="1">
          <mxGeometry x="150" y="260" width="170" height="90" as="geometry" />
        </mxCell>
        <mxCell id="DQElCaOPBhp9bba2K63A-6" value="栈（线程）" style="rounded=0;whiteSpace=wrap;html=1;fillColor=#f8cecc;strokeColor=#b85450;" vertex="1" parent="1">
          <mxGeometry x="360" y="260" width="170" height="90" as="geometry" />
        </mxCell>
        <mxCell id="DQElCaOPBhp9bba2K63A-7" value="栈（本地方法）" style="rounded=0;whiteSpace=wrap;html=1;fillColor=#f8cecc;strokeColor=#b85450;" vertex="1" parent="1">
          <mxGeometry x="560" y="260" width="170" height="90" as="geometry" />
        </mxCell>
        <mxCell id="DQElCaOPBhp9bba2K63A-8" value="元空间" style="rounded=0;whiteSpace=wrap;html=1;fillColor=#d5e8d4;strokeColor=#82b366;" vertex="1" parent="1">
          <mxGeometry x="150" y="410" width="170" height="90" as="geometry" />
        </mxCell>
        <mxCell id="DQElCaOPBhp9bba2K63A-9" value="程序计数器（PC）" style="rounded=0;whiteSpace=wrap;html=1;fillColor=#f8cecc;strokeColor=#b85450;" vertex="1" parent="1">
          <mxGeometry x="360" y="410" width="370" height="90" as="geometry" />
        </mxCell>
        <mxCell id="DQElCaOPBhp9bba2K63A-14" style="edgeStyle=orthogonalEdgeStyle;rounded=0;orthogonalLoop=1;jettySize=auto;html=1;exitX=0.5;exitY=1;exitDx=0;exitDy=0;entryX=1;entryY=0.25;entryDx=0;entryDy=0;" edge="1" parent="1" source="DQElCaOPBhp9bba2K63A-13" target="DQElCaOPBhp9bba2K63A-4">
          <mxGeometry relative="1" as="geometry" />
        </mxCell>
        <mxCell id="DQElCaOPBhp9bba2K63A-13" value="类加载子系统" style="whiteSpace=wrap;html=1;fillColor=#e1d5e7;strokeColor=#9673a6;" vertex="1" parent="1">
          <mxGeometry x="940" y="190" width="110" height="50" as="geometry" />
        </mxCell>
        <mxCell id="DQElCaOPBhp9bba2K63A-18" style="edgeStyle=orthogonalEdgeStyle;rounded=0;orthogonalLoop=1;jettySize=auto;html=1;exitX=0.5;exitY=0;exitDx=0;exitDy=0;entryX=0.75;entryY=0;entryDx=0;entryDy=0;" edge="1" parent="1" source="DQElCaOPBhp9bba2K63A-15" target="DQElCaOPBhp9bba2K63A-9">
          <mxGeometry relative="1" as="geometry">
            <Array as="points">
              <mxPoint x="995" y="390" />
              <mxPoint x="638" y="390" />
            </Array>
          </mxGeometry>
        </mxCell>
        <mxCell id="DQElCaOPBhp9bba2K63A-19" style="edgeStyle=orthogonalEdgeStyle;rounded=0;orthogonalLoop=1;jettySize=auto;html=1;exitX=0;exitY=0.5;exitDx=0;exitDy=0;entryX=1;entryY=0.641;entryDx=0;entryDy=0;entryPerimeter=0;" edge="1" parent="1" source="DQElCaOPBhp9bba2K63A-15" target="DQElCaOPBhp9bba2K63A-4">
          <mxGeometry relative="1" as="geometry" />
        </mxCell>
        <mxCell id="DQElCaOPBhp9bba2K63A-15" value="字节码执行引擎" style="whiteSpace=wrap;html=1;fillColor=#e1d5e7;strokeColor=#9673a6;" vertex="1" parent="1">
          <mxGeometry x="940" y="420" width="110" height="50" as="geometry" />
        </mxCell>
        <mxCell id="OTBtEdxUYZ1fyFuqsqig-1" value="" style="rounded=0;whiteSpace=wrap;html=1;fillColor=#d5e8d4;strokeColor=#82b366;" vertex="1" parent="1">
          <mxGeometry x="100" y="660" width="730" height="140" as="geometry" />
        </mxCell>
        <mxCell id="OTBtEdxUYZ1fyFuqsqig-2" value="Eden" style="rounded=0;whiteSpace=wrap;html=1;fillColor=#1ba1e2;strokeColor=#006EAF;fontColor=#ffffff;" vertex="1" parent="1">
          <mxGeometry x="130" y="690" width="190" height="80" as="geometry" />
        </mxCell>
        <mxCell id="OTBtEdxUYZ1fyFuqsqig-3" value="S0" style="rounded=0;whiteSpace=wrap;html=1;fillColor=#1ba1e2;strokeColor=#006EAF;fontColor=#ffffff;" vertex="1" parent="1">
          <mxGeometry x="350" y="690" width="100" height="80" as="geometry" />
        </mxCell>
        <mxCell id="OTBtEdxUYZ1fyFuqsqig-4" value="S1" style="rounded=0;whiteSpace=wrap;html=1;fillColor=#1ba1e2;strokeColor=#006EAF;fontColor=#ffffff;" vertex="1" parent="1">
          <mxGeometry x="480" y="690" width="100" height="80" as="geometry" />
        </mxCell>
        <mxCell id="OTBtEdxUYZ1fyFuqsqig-5" value="Old" style="rounded=0;whiteSpace=wrap;html=1;fillColor=#a20025;strokeColor=#6F0000;fontColor=#ffffff;" vertex="1" parent="1">
          <mxGeometry x="610" y="690" width="180" height="80" as="geometry" />
        </mxCell>
        <mxCell id="OTBtEdxUYZ1fyFuqsqig-6" value="" style="shape=curlyBracket;whiteSpace=wrap;html=1;rounded=1;rotation=-90;" vertex="1" parent="1">
          <mxGeometry x="350" y="590" width="20" height="460" as="geometry" />
        </mxCell>
        <mxCell id="OTBtEdxUYZ1fyFuqsqig-7" value="&lt;font style=&quot;font-size: 15px&quot;&gt;年轻代&lt;/font&gt;" style="text;html=1;align=center;verticalAlign=middle;resizable=0;points=[];autosize=1;strokeColor=none;" vertex="1" parent="1">
          <mxGeometry x="330" y="840" width="60" height="20" as="geometry" />
        </mxCell>
        <mxCell id="OTBtEdxUYZ1fyFuqsqig-8" value="" style="shape=curlyBracket;whiteSpace=wrap;html=1;rounded=1;rotation=-90;" vertex="1" parent="1">
          <mxGeometry x="690" y="730" width="20" height="180" as="geometry" />
        </mxCell>
        <mxCell id="OTBtEdxUYZ1fyFuqsqig-9" value="&lt;font style=&quot;font-size: 15px&quot;&gt;老年代&lt;/font&gt;" style="text;html=1;align=center;verticalAlign=middle;resizable=0;points=[];autosize=1;strokeColor=none;" vertex="1" parent="1">
          <mxGeometry x="670" y="840" width="60" height="20" as="geometry" />
        </mxCell>
      </root>
    </mxGraphModel>
  </diagram>
</mxfile>
